#!OML:ASF F:\VICON\USERDATA\INSTALL\Justin_Nancy\Justin_Nancy.ASF
:FULLY-SPECIFIED
:DEGREES
342
root 0.719478 21.1661 6.40784 9.39699 -7.66181 -2.55227
lowerback 18.4126 1.04683 -0.0177115
upperback 4.46952 1.52413 2.75815
thorax -5.57475 0.74003 2.60693
lowerneck -10.3034 -1.87065 -10.7599
upperneck 21.8513 -1.64094 5.01913
head 8.64389 -1.14664 3.33983
rclavicle 1.86858e-014 -1.98785e-014
rhumerus -58.5118 -20.2164 -52.5
rradius 19.8137
rwrist 14.8936
rhand -14.7876 10.2058
rfingers 7.12502
rthumb 11.3696 -19.466
lclavicle 1.86858e-014 -1.98785e-014
lhumerus -58.2964 23.2088 60.0942
lradius 37.4821
lwrist 16.2414
lhand -25.4449 20.684
lfingers 7.12502
lthumb 1.0819 50.661
rfemur -49.8411 -2.86956 22.9514
rtibia 57.0831
rfoot 8.22545 3.34914
rtoes 4.46756
lfemur -41.8516 1.59916 -15.0486
ltibia 37.2577
lfoot 18.5804 5.64926
ltoes -6.62218
343
root 0.711564 20.9576 6.76673 9.21295 -7.72157 -2.37055
lowerback 18.4437 1.00816 -0.266502
upperback 4.42268 1.4266 2.71723
thorax -5.6416 0.696105 2.72724
lowerneck -10.0738 -1.79542 -10.8077
upperneck 21.6602 -1.56924 5.09411
head 8.53033 -1.10812 3.3776
rclavicle -3.77691e-015 -1.19271e-015
rhumerus -60.4022 -19.1188 -52.0145
rradius 20.8546
rwrist 13.2048
rhand -14.8428 9.99805
rfingers 7.12502
rthumb 11.3164 -19.6767
lclavicle -3.77691e-015 -1.19271e-015
lhumerus -60.0454 22.5436 58.8126
lradius 37.8387
lwrist 16.1884
lhand -24.8286 20.1725
lfingers 7.12502
lthumb 1.67709 50.1456
rfemur -49.2204 -2.34769 22.3369
rtibia 53.2777
rfoot 10.0043 3.59527
rtoes 3.33598
lfemur -41.0232 0.0581342 -14.1782
ltibia 33.8602
lfoot 20.3367 7.49844
ltoes -5.53675
344
root 0.700524 20.7273 7.12518 9.14382 -8.19814 -2.46629
lowerback 18.3845 1.10734 -0.344661
upperback 4.32826 1.53695 2.62969
thorax -5.71653 0.751487 2.65277
lowerneck -9.8721 -1.73937 -10.8162
upperneck 21.5667 -1.55633 5.28873
head 8.45952 -1.08448 3.44541
rclavicle 2.74323e-014 2.42517e-014
rhumerus -62.2852 -18.2207 -51.5405
rradius 21.7706
rwrist 11.7652
rhand -15.2614 10.495
rfingers 7.12502
rthumb 10.9126 -19.2014
lclavicle 2.74323e-014 2.42517e-014
lhumerus -61.767 21.3795 57.8553
lradius 38.9211
lwrist 16.797
lhand -24.7274 21.5904
lfingers 7.12502
lthumb 1.77483 51.5628
rfemur -48.6679 -1.37865 21.9648
rtibia 49.3944
rfoot 12.1318 3.73383
rtoes 3.35125
lfemur -40.4191 -1.0695 -13.0155
ltibia 31.0273
lfoot 21.4781 9.2552
ltoes -4.50369
345
root 0.693045 20.4762 7.47927 9.07722 -8.74426 -2.51652
lowerback 17.7484 1.24281 -0.533825
upperback 4.6149 1.66266 2.57316
thorax -5.08075 0.808297 2.67842
lowerneck -10.031 -1.70936 -10.7365
upperneck 21.4508 -1.53435 5.39717
head 8.44588 -1.05328 3.46934
rclavicle -1.07344e-014 5.96354e-015
rhumerus -63.4972 -17.6157 -51.2861
rradius 22.5573
rwrist 10.2552
rhand -15.7823 11.8053
rfingers 7.12502
rthumb 10.4101 -17.917
lclavicle -1.07344e-014 5.96354e-015
lhumerus -62.8 20.6848 57.2263
lradius 40.2785
lwrist 17.3805
lhand -24.5332 24.319
lfingers 7.12502
lthumb 1.9624 54.2897
rfemur -48.1391 -0.454648 21.5626
rtibia 45.5296
rfoot 14.4487 3.92557
rtoes 4.19304
lfemur -40.0849 -2.10845 -11.9218
ltibia 28.909
lfoot 21.5349 10.8239
ltoes -4.64043
346
root 0.685917 20.2192 7.84027 8.88207 -9.08264 -2.29853
lowerback 17.2704 1.27519 -0.919657
upperback 4.76504 1.62657 2.47431
thorax -4.67146 0.789227 2.80634
lowerneck -10.2235 -1.60441 -10.4743
upperneck 21.5915 -1.37535 5.19046
head 8.51168 -0.979186 3.37337
rclavicle 9.54166e-015 -3.97569e-015
rhumerus -64.7009 -16.8584 -50.9917
rradius 23.2846
rwrist 8.71182
rhand -15.8929 12.6254
rfingers 7.12502
rthumb 10.3035 -17.1022
lclavicle 9.54166e-015 -3.97569e-015
lhumerus -64.037 20.5378 55.7442
lradius 40.3107
lwrist 16.8254
lhand -24.0019 20.7725
lfingers 7.12502
lthumb 2.4755 50.7379
rfemur -47.4615 0.15484 20.9231
rtibia 41.7636
rfoot 16.8454 4.26352
rtoes 4.58109
lfemur -39.8504 -3.29817 -11.1462
ltibia 27.4317
lfoot 20.7827 12.3091
ltoes -5.47287
347
root 0.670584 19.9603 8.20593 8.46484 -9.09651 -2.23866
lowerback 17.0267 1.20548 -1.07597
upperback 4.92885 1.50323 2.43343
thorax -4.36299 0.725295 2.88089
lowerneck -10.4958 -1.55689 -10.3428
upperneck 21.7646 -1.29543 5.13128
head 8.61224 -0.93819 3.34279
rclavicle -5.96354e-015 -2.38542e-014
rhumerus -65.7403 -16.4398 -50.3862
rradius 23.6857
rwrist 7.8677
rhand -15.9155 12.1811
rfingers 7.12502
rthumb 10.2817 -17.5476
lclavicle -5.96354e-015 -2.38542e-014
lhumerus -65.0086 20.1812 54.5433
lradius 40.6906
lwrist 16.731
lhand -24.0316 19.8016
lfingers 7.12502
lthumb 2.44682 49.7673
rfemur -46.3777 0.554704 20.5424
rtibia 38.163
rfoot 19.2475 4.32364
rtoes 6.03751
lfemur -39.5186 -4.54172 -10.2802
ltibia 26.4359
lfoot 19.9831 13.5691
ltoes -7.29387
348
root 0.659075 19.6928 8.56852 7.86564 -8.91492 -2.28848
lowerback 17.0451 1.04752 -1.01036
upperback 5.00794 1.30718 2.4523
thorax -4.27606 0.627191 2.90417
lowerneck -10.6175 -1.51547 -10.5345
upperneck 22.1183 -1.25432 5.39863
head 8.75327 -0.914844 3.4789
rclavicle -2.5842e-015 1.47101e-014
rhumerus -66.7877 -16.0137 -49.5724
rradius 24.0038
rwrist 7.33148
rhand -15.9345 12.1195
rfingers 7.12502
rthumb 10.2634 -17.6101
lclavicle -2.5842e-015 1.47101e-014
lhumerus -66.1224 19.5453 53.5416
lradius 41.3535
lwrist 16.5849
lhand -24.3688 20.0344
lfingers 7.12502
lthumb 2.12114 50.0036
rfemur -45.0417 0.609941 20.4309
rtibia 34.8245
rfoot 21.2131 4.63742
rtoes 6.35083
lfemur -39.0952 -5.56059 -9.56476
ltibia 25.8034
lfoot 19.7767 14.5835
ltoes -7.52321
349
root 0.651466 19.4209 8.92945 7.23151 -8.73984 -2.24413
lowerback 17.0636 0.877463 -1.02611
upperback 4.99262 1.08289 2.45155
thorax -4.28906 0.51759 2.95835
lowerneck -10.4454 -1.44899 -10.5652
upperneck 22.2816 -1.1954 5.46558
head 8.7718 -0.88932 3.51635
rclavicle 1.86858e-014 -1.55052e-014
rhumerus -67.7972 -15.5304 -48.5595
rradius 24.1263
rwrist 6.93819
rhand -15.8914 13.1822
rfingers 7.12502
rthumb 10.3049 -16.5453
lclavicle 1.86858e-014 -1.55052e-014
lhumerus -67.1636 18.875 52.5648
lradius 41.7157
lwrist 16.2364
lhand -24.432 20.1122
lfingers 7.12502
lthumb 2.06014 50.082
rfemur -43.7765 0.386823 20.3682
rtibia 31.8714
rfoot 22.6802 4.88812
rtoes 6.06466
lfemur -38.6792 -5.98597 -9.38574
ltibia 25.5462
lfoot 20.4224 14.6667
ltoes -5.75526
350
root 0.640667 19.1383 9.28766 6.60225 -8.5697 -2.28011
lowerback 16.9121 0.742049 -1.01056
upperback 5.1481 0.906426 2.47397
thorax -4.03282 0.426664 3.00961
lowerneck -10.6262 -1.46888 -10.5367
upperneck 22.3045 -1.21091 5.47101
head 8.81437 -0.892593 3.51271
rclavicle -9.54166e-015 -7.95139e-016
rhumerus -68.5585 -15.48 -47.5227
rradius 24.3178
rwrist 6.65707
rhand -16.0773 13.9431
rfingers 7.12502
rthumb 10.1256 -15.7933
lclavicle -9.54166e-015 -7.95139e-016
lhumerus -67.5575 18.3961 51.8909
lradius 42.0314
lwrist 16.0037
lhand -24.1861 21.0364
lfingers 7.12502
lthumb 2.29765 51.0038
rfemur -42.6298 0.139148 20.4815
rtibia 29.4987
rfoot 23.6321 4.54369
rtoes 6.22002
lfemur -38.2449 -5.50359 -9.62858
ltibia 25.6245
lfoot 21.3733 13.6558
ltoes -4.72064
351
root 0.626825 18.8451 9.64149 5.95557 -8.33908 -2.32931
lowerback 16.8697 0.641828 -0.985488
upperback 5.23159 0.779226 2.49576
thorax -3.91393 0.362053 3.04396
lowerneck -10.8578 -1.49756 -10.4768
upperneck 22.4395 -1.24309 5.48489
head 8.90607 -0.901837 3.50746
rclavicle -1.49089e-014 3.57812e-014
rhumerus -69.4275 -15.5823 -46.4364
rradius 24.5862
rwrist 6.34717
rhand -16.3508 14.2571
rfingers 7.12502
rthumb 9.86171 -15.492
lclavicle -1.49089e-014 3.57812e-014
lhumerus -67.7564 17.7224 51.4025
lradius 42.4465
lwrist 15.7885
lhand -23.8876 21.869
lfingers 7.12502
lthumb 2.58595 51.8331
rfemur -41.5728 -0.19295 20.7087
rtibia 27.8222
rfoot 24.2319 4.2043
rtoes 5.28705
lfemur -37.8266 -4.26521 -10.2762
ltibia 26.0489
lfoot 22.0081 11.6774
ltoes -5.89033
352
root 0.610117 18.5452 9.98351 5.19843 -7.89176 -2.32544
lowerback 17.0706 0.469072 -1.02262
upperback 5.18726 0.552356 2.55558
thorax -4.0544 0.252514 3.17514
lowerneck -10.9117 -1.42898 -10.2877
upperneck 22.6398 -1.13635 5.27656
head 8.97415 -0.861519 3.41889
rclavicle -1.2921e-014 1.66979e-014
rhumerus -70.4337 -15.4905 -45.2114
rradius 24.8007
rwrist 6.08823
rhand -16.5534 14.4047
rfingers 7.12502
rthumb 9.66622 -15.3535
lclavicle -1.2921e-014 1.66979e-014
lhumerus -67.9229 17.2145 50.7847
lradius 42.4839
lwrist 15.5682
lhand -23.4834 21.6315
lfingers 7.12502
lthumb 2.97627 51.5904
rfemur -40.5763 -0.541158 20.8709
rtibia 26.8911
rfoot 24.7502 3.71461
rtoes 4.09559
lfemur -37.3898 -3.02575 -11.0985
ltibia 26.8613
lfoot 22.2837 9.44907
ltoes -7.32025
353
root 0.596102 18.2335 10.3214 4.36748 -7.49093 -2.43764
lowerback 17.3742 0.329932 -0.868105
upperback 5.11796 0.40135 2.59304
thorax -4.27906 0.181313 3.15995
lowerneck -10.8789 -1.45337 -10.2574
upperneck 22.7126 -1.19078 5.31441
head 8.99738 -0.88269 3.42249
rclavicle -2.40529e-014 -3.97569e-015
rhumerus -71.3433 -15.4446 -44.1622
rradius 24.7062
rwrist 5.84899
rhand -17.043 14.2486
rfingers 7.12502
rthumb 9.19382 -15.531
lclavicle -2.40529e-014 -3.97569e-015
lhumerus -67.8722 16.5482 50.4055
lradius 42.4629
lwrist 15.6788
lhand -23.4786 21.5014
lfingers 7.12502
lthumb 2.98089 51.4603
rfemur -39.7325 -1.00146 21.2802
rtibia 26.6992
rfoot 25.5473 3.10537
rtoes 5.42023
lfemur -37.0111 -2.01206 -11.709
ltibia 28.1657
lfoot 22.7915 7.61625
ltoes -7.25298
354
root 0.579584 17.9129 10.6506 3.51961 -7.28111 -2.68805
lowerback 17.7468 0.286531 -0.689819
upperback 5.03931 0.383754 2.67397
thorax -4.55889 0.175641 3.15156
lowerneck -10.8338 -1.54175 -10.2472
upperneck 22.4794 -1.33604 5.39756
head 8.9209 -0.936869 3.42903
rclavicle 3.34952e-014 -1.15295e-014
rhumerus -72.0984 -15.6276 -42.9686
rradius 24.1922
rwrist 6.17224
rhand -17.9739 14.8362
rfingers 7.12502
rthumb 8.29556 -14.9809
lclavicle 3.34952e-014 -1.15295e-014
lhumerus -67.7574 15.8311 50.2815
lradius 42.7081
lwrist 15.6586
lhand -23.6396 22.386
lfingers 7.12502
lthumb 2.82545 52.347
rfemur -39.0306 -1.17293 21.8622
rtibia 27.2092
rfoot 26.4066 2.76032
rtoes 7.35142
lfemur -36.884 -1.3503 -11.9298
ltibia 30.2066
lfoot 23.3692 6.04598
ltoes -5.80209
355
root 0.559535 17.5852 10.9697 2.72825 -7.15135 -2.9688
lowerback 18.076 0.246972 -0.603403
upperback 4.99131 0.357261 2.78488
thorax -4.78311 0.164691 3.22977
lowerneck -11.0802 -1.58306 -10.0678
upperneck 22.2048 -1.38564 5.34145
head 8.87455 -0.94261 3.36876
rclavicle -1.47101e-014 3.18055e-015
rhumerus -72.5869 -15.7275 -41.9936
rradius 23.4997
rwrist 6.39836
rhand -18.713 16.2278
rfingers 7.12502
rthumb 7.58218 -13.6163
lclavicle -1.47101e-014 3.18055e-015
lhumerus -67.4191 15.4887 50.0368
lradius 42.7083
lwrist 15.2315
lhand -23.2326 22.4196
lfingers 7.12502
lthumb 3.21849 52.3751
rfemur -38.609 -1.34092 22.5718
rtibia 28.5553
rfoot 26.7706 3.31899
rtoes 7.85746
lfemur -37.0849 -0.790657 -12.0463
ltibia 33.3274
lfoot 19.5326 3.55964
ltoes -14.1757
356
root 0.540192 17.2387 11.2787 1.99041 -7.03818 -3.26103
lowerback 18.2589 0.248894 -0.466017
upperback 5.10069 0.388946 2.88186
thorax -4.76486 0.177879 3.249
lowerneck -11.7998 -1.72089 -9.96502
upperneck 22.0177 -1.53899 5.43246
head 8.95644 -0.984408 3.36366
rclavicle -3.37934e-015 1.66979e-014
rhumerus -72.6847 -16.0745 -41.6691
rradius 23.2141
rwrist 5.87605
rhand -19.042 16.0365
rfingers 7.12502
rthumb 7.26459 -13.8188
lclavicle -3.37934e-015 1.66979e-014
lhumerus -66.4479 15.5091 49.927
lradius 42.4591
lwrist 14.7395
lhand -23.2656 23.0006
lfingers 7.12502
lthumb 3.18656 52.9565
rfemur -38.6128 -1.71522 23.4178
rtibia 31.1149
rfoot 24.942 4.69617
rtoes 6.89663
lfemur -37.56 0.43865 -12.4207
ltibia 37.5
lfoot 9.29242 -0.399413
ltoes -1.27008
